<?xml version="1.0" standalone="no"?>
<!DOCTYPE svg PUBLIC "-//W3C//DTD SVG 20010904//EN"
 "http://www.w3.org/TR/2001/REC-SVG-20010904/DTD/svg10.dtd">
<svg version="1.0" xmlns="http://www.w3.org/2000/svg"
 width="1280.000000pt" height="716.000000pt" viewBox="0 0 1280.000000 716.000000"
 preserveAspectRatio="xMidYMid meet">
<metadata>
Created by potrace 1.15, written by Peter Selinger 2001-2017
</metadata>
<g transform="translate(0.000000,716.000000) scale(0.100000,-0.100000)"
fill="#4caf50" stroke="none">
<path d="M2841 7058 c-12 -57 -30 -140 -40 -185 l-19 -83 347 0 346 0 44 173
c24 94 46 178 49 185 3 9 -71 12 -350 12 l-355 0 -22 -102z"/>
<path d="M9765 6781 c-76 -35 -115 -95 -115 -176 0 -41 -2 -45 -32 -53 -18 -5
-153 -39 -300 -77 -148 -38 -268 -73 -268 -77 0 -5 38 -133 85 -285 47 -152
84 -277 82 -279 -1 -1 -385 -73 -852 -158 -468 -85 -1257 -230 -1755 -321
-498 -91 -1276 -233 -1729 -316 -453 -83 -827 -147 -832 -142 -4 4 -65 154
-134 333 -70 179 -208 532 -306 785 -99 253 -192 492 -207 530 l-28 70 -158 3
c-125 2 -157 0 -153 -10 20 -52 287 -730 491 -1250 135 -345 246 -632 246
-639 0 -11 -279 -420 -306 -449 -13 -13 -18 -13 -47 4 -662 385 -1472 413
-2162 76 -1129 -551 -1600 -1904 -1061 -3045 413 -871 1365 -1402 2318 -1290
642 75 1208 399 1588 910 174 234 307 508 375 775 15 58 29 111 31 118 2 8 23
-3 56 -30 117 -95 267 -130 408 -94 225 58 376 286 340 512 -6 37 -16 76 -21
87 -9 16 -7 24 12 42 52 49 3980 3187 3984 3183 5 -4 318 -1023 332 -1076 4
-18 -1 -25 -33 -38 -314 -130 -638 -371 -866 -643 -215 -258 -380 -582 -463
-911 -52 -205 -59 -277 -59 -565 0 -251 2 -279 27 -406 143 -728 591 -1320
1242 -1640 307 -151 595 -223 935 -236 1012 -37 1936 607 2254 1572 84 255
110 430 110 720 0 226 -11 333 -54 520 -107 463 -372 901 -733 1211 -532 457
-1229 646 -1915 520 -84 -15 -125 -19 -128 -12 -2 6 -62 205 -134 441 -72 237
-194 638 -271 893 -78 255 -139 465 -136 468 3 3 76 25 163 50 148 41 162 44
209 33 230 -51 331 274 113 366 -49 20 -94 19 -143 -4z m-696 -1244 c-14 -12
-387 -312 -828 -667 -442 -355 -1301 -1045 -1909 -1533 l-1105 -888 -26 25
c-46 44 -143 96 -202 108 l-58 12 -50 130 c-27 72 -100 259 -161 416 -124 315
-364 931 -501 1284 -49 126 -88 230 -87 231 2 1 192 36 423 78 410 75 881 161
2220 407 363 66 1004 184 1425 261 421 77 783 144 805 149 22 4 49 8 60 9 18
0 18 -2 -6 -22z m-4940 -1645 c133 -337 241 -616 241 -620 0 -4 -24 38 -53 93
-144 273 -360 533 -602 724 -44 35 -84 67 -88 71 -5 4 49 87 118 185 70 97
131 173 135 168 5 -4 117 -284 249 -621z m-1589 353 c148 -20 231 -39 373 -85
149 -48 373 -157 371 -181 -1 -9 -223 -336 -495 -727 l-494 -711 -41 -1 c-22
0 -63 -11 -92 -26 -168 -83 -139 -333 44 -384 73 -21 168 10 216 68 l23 29
430 -47 c237 -27 621 -69 855 -95 234 -25 444 -49 468 -52 l43 -6 -6 -51 c-4
-28 -20 -101 -35 -163 -126 -501 -449 -939 -890 -1205 -573 -346 -1283 -377
-1885 -83 -201 99 -349 205 -523 378 -593 585 -747 1490 -382 2245 293 606
862 1014 1536 1101 109 14 369 12 484 -4z m8190 5 c607 -76 1134 -409 1450
-918 358 -578 393 -1310 91 -1912 -102 -202 -195 -334 -350 -494 -175 -179
-322 -287 -541 -397 -882 -442 -1974 -146 -2516 681 -205 313 -307 637 -321
1015 -16 462 122 896 405 1270 67 88 245 268 337 340 170 133 450 291 466 263
4 -7 88 -278 187 -603 100 -324 219 -713 266 -864 66 -215 82 -280 75 -298
-24 -64 -2 -155 53 -218 51 -58 109 -85 181 -85 68 0 110 16 161 60 129 113
105 322 -46 397 -35 17 -49 31 -57 56 -5 17 -104 343 -220 722 -115 380 -227
747 -249 817 l-39 128 36 9 c33 9 140 26 216 35 71 8 337 5 415 -4z m-7071
-545 c177 -171 295 -334 401 -550 132 -269 200 -564 200 -865 l0 -111 -42 6
c-41 5 -900 95 -1433 150 -339 35 -323 32 -330 66 -4 15 -14 38 -24 51 -18 23
-18 24 443 670 254 355 482 676 509 712 l47 67 63 -48 c34 -26 109 -93 166
-148z m911 -935 c54 -139 87 -236 80 -238 -6 -2 -23 -15 -39 -28 -33 -28 -41
-23 -41 26 0 72 -61 369 -97 467 -3 10 -4 16 -1 13 4 -3 47 -111 98 -240z"/>
</g>
</svg>
